<?xml version="1.0" standalone="no"?>
<!DOCTYPE svg PUBLIC "-//W3C//DTD SVG 20010904//EN"
 "http://www.w3.org/TR/2001/REC-SVG-20010904/DTD/svg10.dtd">
<svg version="1.0" xmlns="http://www.w3.org/2000/svg"
 width="1024.000000pt" height="1024.000000pt" viewBox="0 0 1024.000000 1024.000000"
 preserveAspectRatio="xMidYMid meet">
<metadata>
Created by potrace 1.11, written by Peter Selinger 2001-2013
</metadata>
<g transform="translate(0.000000,1024.000000) scale(0.100000,-0.100000)"
fill="#000000" stroke="none">
<path d="M361 10224 c-166 -45 -301 -180 -346 -347 -21 -80 -21 -9436 1 -9516
45 -167 179 -300 347 -346 44 -12 744 -14 4752 -14 4193 -1 4707 1 4760 14
157 41 282 154 341 310 19 49 19 154 22 4765 2 3364 -1 4730 -9 4768 -32 155
-149 290 -307 354 l-57 23 -4725 2 c-4104 2 -4732 0 -4779 -13z"/>
</g>
</svg>
