<?xml version="1.0" standalone="no"?>
<!DOCTYPE svg PUBLIC "-//W3C//DTD SVG 20010904//EN"
 "http://www.w3.org/TR/2001/REC-SVG-20010904/DTD/svg10.dtd">
<svg version="1.0" xmlns="http://www.w3.org/2000/svg"
 width="1024.000000pt" height="1024.000000pt" viewBox="0 0 1024.000000 1024.000000"
 preserveAspectRatio="xMidYMid meet">
<metadata>
Created by potrace 1.11, written by Peter Selinger 2001-2013
</metadata>
<g transform="translate(0.000000,1024.000000) scale(0.100000,-0.100000)"
fill="#000000" stroke="none">
<path d="M4665 10225 c-1542 -141 -2922 -955 -3791 -2235 -431 -634 -724
-1395 -829 -2150 -61 -441 -61 -999 0 -1440 209 -1504 1097 -2853 2409 -3657
581 -356 1273 -604 1946 -698 441 -61 999 -61 1440 0 1330 185 2562 913 3376
1995 519 691 862 1517 979 2360 61 441 61 999 0 1440 -209 1504 -1097 2853
-2409 3657 -668 410 -1426 657 -2226 728 -203 18 -697 18 -895 0z m-693 -2263
c60 -30 120 -90 150 -150 l23 -47 0 -2645 0 -2645 -23 -47 c-30 -60 -90 -120
-150 -150 -47 -23 -49 -23 -452 -23 -403 0 -405 0 -452 23 -60 30 -120 90
-150 150 l-23 47 -3 2615 c-2 1877 0 2630 8 2666 20 94 109 190 203 220 33 10
129 13 432 11 385 -2 391 -2 437 -25z m2880 0 c60 -30 120 -90 150 -150 l23
-47 0 -565 0 -565 -23 -47 c-30 -60 -90 -120 -150 -150 -47 -23 -49 -23 -452
-23 -403 0 -405 0 -452 23 -60 30 -120 90 -150 150 l-23 47 -3 535 c-2 367 0
551 8 586 20 94 109 190 203 220 33 10 129 13 432 11 385 -2 391 -2 437 -25z
m0 -2240 c60 -30 120 -90 150 -150 l23 -47 5 -945 c5 -1022 3 -973 57 -1022
27 -25 87 -48 125 -48 42 0 93 -31 118 -72 20 -32 20 -47 18 -498 -3 -463 -3
-465 -26 -512 -30 -60 -90 -120 -150 -150 l-47 -23 -565 0 -565 0 -47 23 c-60
30 -120 90 -150 150 l-23 47 -5 880 -5 880 -26 55 c-37 80 -81 125 -157 162
l-67 33 -240 5 c-225 5 -243 6 -287 28 -60 30 -120 90 -150 150 -23 46 -23 54
-26 422 -2 252 0 392 8 426 20 94 109 190 203 220 34 10 213 13 912 11 l870
-2 47 -23z"/>
</g>
</svg>
